<svg xmlns="http://www.w3.org/2000/svg" style="display:none">
  <symbol id="main" viewBox="0 0 1024 1024">
    <path fill="currentColor" opacity="1.000000" stroke="none" 
      d="M300.523987,241.559235 
      C304.143677,237.614639 307.341644,233.739059 310.968323,230.317947 
      C318.389313,223.317673 326.654327,222.515976 336.382629,225.857788 
      C347.348969,229.624908 358.927094,231.567200 370.071411,234.869308 
      C393.376221,241.774673 417.531342,245.496094 440.416107,253.987686 
      C450.342377,257.670929 460.127106,261.140381 462.223267,272.960022 
      C465.106903,273.532043 466.739624,272.186218 468.508972,271.359772 
      C484.194550,264.032898 500.341675,258.629181 517.954895,258.802490 
      C529.467468,258.915771 539.654236,262.538971 549.463989,268.536835 
      C584.152649,289.746124 603.144470,321.712097 613.254150,359.970764 
      C613.971741,362.686554 614.527527,365.470825 616.097412,367.908875 
      C618.379944,368.463226 619.923035,366.924438 621.649353,366.078827 
      C644.390259,354.939514 666.975891,343.497162 689.364258,331.660431 
      C705.010315,323.388336 721.842346,318.889465 739.331299,316.642334 
      C757.996399,314.244141 776.291138,309.655029 794.976685,307.319244 
      C808.797485,305.591522 821.162720,308.622284 831.887878,317.533722 
      C843.970215,327.572754 855.548279,338.089691 862.975037,352.331848 
      C871.635132,368.939117 872.852234,386.748993 871.134766,404.871887 
      C869.141174,425.908752 866.905396,446.932831 861.892761,467.547394 
      C857.271179,486.553497 850.500183,504.806030 842.673767,522.668945 
      C829.227600,553.358337 817.601318,584.758789 806.726562,616.406311 
      C795.798157,648.209778 779.613098,676.900879 757.995728,702.426270 
      C730.921936,734.394470 701.175537,763.492188 668.022400,789.458252 
      C638.457214,812.614319 602.774170,797.796997 590.773254,767.621643 
      C584.774353,752.537903 583.508850,737.347656 585.527039,721.564209 
      C587.636475,705.067078 589.182068,688.500122 592.178833,672.115417 
      C597.003723,645.736328 606.109497,620.785156 616.482910,596.164734 
      C625.607483,574.508301 633.175354,552.274231 638.075256,529.227112 
      C639.077820,524.511963 639.424438,519.709534 637.654358,515.139282 
      C637.052002,515.016968 636.621399,514.787048 636.442383,514.913452 
      C625.553650,522.601501 614.310791,530.063843 609.082764,543.122009 
      C598.904846,568.543457 587.376343,593.299011 572.492432,616.323486 
      C562.456970,631.847839 551.549500,646.807129 541.440857,662.286133 
      C536.168152,670.359985 531.532471,678.881226 527.039734,687.426819 
      C515.562195,709.258423 499.041870,726.699097 479.818787,741.680908 
      C469.807404,749.483459 458.205902,753.336365 445.289062,752.376343 
      C425.093597,750.875305 410.646271,734.408630 413.125366,714.177979 
      C415.794098,692.399292 418.825623,670.612305 423.697906,649.190674 
      C426.313660,637.690063 431.973206,627.052124 434.251587,615.384705 
      C439.333557,589.360168 447.675171,564.226257 455.077332,538.829895 
      C457.822540,529.411316 457.496979,519.831299 455.044403,510.202454 
      C453.878571,505.625397 451.824310,504.545807 447.646057,505.650818 
      C437.560333,508.318207 428.205109,512.302185 419.920593,518.894348 
      C396.065826,537.876160 372.311951,557.003113 347.993195,575.377869 
      C327.920685,590.544250 307.562714,605.304016 288.512939,621.783630 
      C278.632446,630.331055 270.020111,640.013123 261.667755,649.982910 
      C250.222244,663.644836 236.386993,674.557251 221.801422,684.622803 
      C216.867905,688.027527 212.211029,691.831299 207.304047,695.276550 
      C198.332016,701.576050 188.748535,705.757996 177.384369,703.355835 
      C169.303604,701.647705 163.230286,697.052368 158.305313,690.603455 
      C147.573471,676.550781 144.234665,660.514404 144.435532,643.147888 
      C144.698929,620.376099 151.146652,598.814636 156.052444,576.911865 
      C162.070145,550.044739 170.205475,523.866577 180.126846,498.191559 
      C183.108047,490.476715 184.948303,482.320984 187.529434,473.632751 
      C179.637604,474.595032 172.906830,477.372620 166.277863,480.194031 
      C153.694809,485.549530 141.501862,491.696533 130.195633,499.484680 
      C125.861679,502.470032 121.111107,504.402740 115.722092,504.230499 
      C103.829781,503.850403 96.843719,491.742096 102.401901,481.227905 
      C104.568512,477.129425 107.802567,474.020386 111.551186,471.479370 
      C133.121780,456.857788 156.513321,446.225952 181.744629,439.661835 
      C188.996979,437.775055 196.201340,435.686798 203.498962,433.998962 
      C206.728622,433.251953 208.712463,431.585266 210.301041,428.774475 
      C217.550125,415.948059 223.126205,402.414917 227.485306,388.380371 
      C228.794769,384.164459 231.529037,380.405579 231.829422,375.279297 
      C225.338501,375.763977 219.508987,377.672577 213.733353,379.566833 
      C207.886612,381.484406 202.177170,383.829254 196.439331,386.068298 
      C186.311966,390.020142 176.502167,386.596375 172.815887,377.760895 
      C169.269501,369.260742 173.561493,359.708893 183.179810,355.275940 
      C202.110199,346.551147 222.165909,341.617096 242.716370,338.998657 
      C250.950226,337.949493 255.910324,334.684631 260.027924,327.291260 
      C268.382538,312.290222 273.521118,296.138550 279.090790,280.118469 
      C283.968079,266.089752 291.315948,253.535950 300.523987,241.559235 
      M555.082581,325.407715 
      C548.685364,315.698364 539.247559,309.393219 530.059631,302.733673 
      C525.346741,299.317749 520.425110,297.747314 514.668762,298.172943 
      C510.663391,298.469055 506.679230,298.868561 502.865662,300.087708 
      C477.063507,308.336212 454.980103,321.598633 440.690582,345.672150 
      C435.242828,354.849945 428.862640,363.435211 421.068848,370.827698 
      C413.970886,377.560150 404.803558,378.671448 396.707428,373.966553 
      C388.826721,369.386871 385.201263,360.462860 387.488678,351.127716 
      C388.931427,345.239716 391.611389,339.866425 394.768097,334.751312 
      C402.822510,321.699982 410.682922,308.557617 416.773926,294.428711 
      C419.373199,288.399414 419.523590,288.051270 412.960602,286.351562 
      C390.564667,280.551422 368.039093,275.254272 345.808044,268.815979 
      C334.066711,265.415619 333.158722,265.817719 326.788452,276.057434 
      C317.158539,291.536682 313.215393,309.255554 307.138641,326.132629 
      C307.007263,326.497498 307.346924,327.031952 307.546265,327.788788 
      C311.040741,328.160675 314.468506,327.656616 317.924103,327.308350 
      C328.198364,326.272766 338.470520,325.247284 348.807770,326.765930 
      C356.996002,327.968903 364.348511,334.664948 365.272583,342.029236 
      C366.550385,352.212463 358.300110,360.552124 346.188568,360.027039 
      C326.869354,359.189423 308.031525,362.511871 289.090881,365.249908 
      C286.523285,365.621063 284.875519,366.821594 283.582611,368.984283 
      C275.276154,382.878967 267.351135,396.949707 262.996063,412.697540 
      C262.225433,415.484131 260.220520,418.000580 260.834412,421.105621 
      C263.276794,422.424957 265.589020,421.660889 267.867035,421.425476 
      C282.279877,419.935883 296.706055,418.476257 311.216614,419.035339 
      C319.903809,419.369965 328.642731,419.913025 334.992737,427.281219 
      C340.161926,433.279266 340.909637,441.670197 336.702972,448.122986 
      C332.739746,454.202332 325.249176,456.813965 317.766663,454.547241 
      C315.032074,453.718872 312.328186,453.165100 309.453979,453.091858 
      C287.364929,452.529114 265.593994,455.222382 243.930603,459.212036 
      C241.727341,459.617767 240.293259,460.521149 239.313843,462.475525 
      C236.329468,468.430695 233.140579,474.287231 230.287399,480.303589 
      C222.125366,497.514465 218.298859,516.257507 211.337631,533.940491 
      C200.874451,560.519165 196.164185,588.777710 189.270935,616.391479 
      C186.342896,628.120850 185.513763,640.043762 186.213394,652.084961 
      C186.322937,653.970093 185.869644,656.194458 188.697540,657.356018 
      C202.902435,646.412720 219.158524,637.753235 230.646896,623.230957 
      C244.175339,606.129822 260.023956,591.433594 277.100372,578.015442 
      C314.693176,548.476074 353.434692,520.403259 390.253754,489.882019 
      C406.730499,476.223541 425.286957,467.604279 446.318268,464.234711 
      C466.706848,460.968140 485.940979,471.846100 492.111542,490.521973 
      C497.883118,507.990387 499.923431,525.732544 495.929504,544.119812 
      C492.766907,558.679688 487.245911,572.441101 483.219971,586.689514 
      C477.517029,606.872986 474.588409,627.768005 467.509674,647.603943 
      C465.667389,652.766541 463.110901,657.718140 462.302429,663.212097 
      C460.217804,677.378601 457.631927,691.453918 454.798218,705.486267 
      C454.541718,706.756531 453.925323,708.099121 455.402771,709.020752 
      C456.774445,709.279724 457.719299,708.545288 458.590057,707.786011 
      C470.177185,697.682678 481.376495,687.190613 489.004364,673.606812 
      C497.650696,658.209351 505.614288,642.373779 516.137085,628.144043 
      C539.543945,596.491577 558.492676,562.542786 573.300232,525.962280 
      C583.026001,501.935974 602.865479,486.279846 625.872070,475.576569 
      C643.824707,467.224548 661.671021,474.330322 671.390564,491.651154 
      C678.753540,504.772430 679.777100,518.998474 677.628357,533.386292 
      C674.664856,553.229553 667.765808,572.056641 661.198364,590.923889 
      C654.626648,609.803467 645.722961,627.783142 639.447510,646.775269 
      C630.234985,674.656372 627.570435,703.711060 624.305481,732.650574 
      C623.311279,741.462646 625.634644,749.519775 630.197754,756.958801 
      C633.451538,762.263367 636.798889,763.012268 641.732483,759.380371 
      C649.377380,753.752625 657.036560,748.114624 664.342163,742.061401 
      C686.091980,724.039612 705.385315,703.509521 723.844727,682.227966 
      C743.663940,659.378784 759.348755,634.027710 769.086182,605.142883 
      C778.130554,578.313843 788.569580,551.986023 798.885010,525.626709 
      C804.345032,511.674408 810.719849,498.093781 816.100830,484.089478 
      C827.118103,455.416290 830.208557,425.311371 832.638428,395.089325 
      C833.892578,379.489624 828.825378,366.235504 816.576233,356.046509 
      C814.528992,354.343536 812.518311,352.570099 810.679199,350.648834 
      C806.716248,346.508850 802.008911,345.589874 796.517944,346.575348 
      C780.300110,349.485931 764.128357,352.844910 747.794983,354.870209 
      C729.262451,357.168182 712.210999,363.101013 696.048889,372.169037 
      C680.644592,380.811920 664.863831,388.731995 648.852539,396.190308 
      C640.340759,400.155212 632.604919,405.301819 625.358704,411.258575 
      C621.368347,414.538910 617.143921,417.540070 612.249817,419.399872 
      C599.949646,424.074127 588.963501,419.109192 584.592529,406.683136 
      C583.274536,402.936127 582.596863,398.959229 581.692749,395.072052 
      C576.063293,370.868042 570.551636,346.622192 555.082581,325.407715 
      z"/>
  </symbol>
</svg>